<mxfile host="app.diagrams.net" agent="Mozilla/5.0 (Windows NT 10.0; Win64; x64) AppleWebKit/537.36 (KHTML, like Gecko) Chrome/128.0.0.0 Safari/537.36" version="24.7.10">
  <diagram name="Page-1" id="bJrqtzGRQ4iaB8Wm2fQQ">
    <mxGraphModel dx="1050" dy="557" grid="1" gridSize="10" guides="1" tooltips="1" connect="1" arrows="1" fold="1" page="1" pageScale="1" pageWidth="850" pageHeight="1100" math="0" shadow="0">
      <root>
        <mxCell id="0" />
        <mxCell id="1" parent="0" />
        <mxCell id="PBYAqG-qk1plVAleeU-4-6" value="" style="edgeStyle=orthogonalEdgeStyle;rounded=0;orthogonalLoop=1;jettySize=auto;html=1;" edge="1" parent="1" source="PBYAqG-qk1plVAleeU-4-1" target="PBYAqG-qk1plVAleeU-4-5">
          <mxGeometry relative="1" as="geometry" />
        </mxCell>
        <mxCell id="PBYAqG-qk1plVAleeU-4-1" value="&lt;font style=&quot;font-size: 17px;&quot;&gt;&lt;b&gt;Sign Up&lt;/b&gt;&lt;/font&gt;" style="rounded=1;whiteSpace=wrap;html=1;fillColor=#dae8fc;strokeColor=default;gradientColor=none;" vertex="1" parent="1">
          <mxGeometry x="50" y="160" width="120" height="60" as="geometry" />
        </mxCell>
        <mxCell id="PBYAqG-qk1plVAleeU-4-10" value="" style="edgeStyle=orthogonalEdgeStyle;rounded=0;orthogonalLoop=1;jettySize=auto;html=1;" edge="1" parent="1" source="PBYAqG-qk1plVAleeU-4-5" target="PBYAqG-qk1plVAleeU-4-9">
          <mxGeometry relative="1" as="geometry" />
        </mxCell>
        <mxCell id="PBYAqG-qk1plVAleeU-4-14" value="" style="edgeStyle=orthogonalEdgeStyle;rounded=0;orthogonalLoop=1;jettySize=auto;html=1;" edge="1" parent="1" source="PBYAqG-qk1plVAleeU-4-5" target="PBYAqG-qk1plVAleeU-4-13">
          <mxGeometry relative="1" as="geometry" />
        </mxCell>
        <mxCell id="PBYAqG-qk1plVAleeU-4-5" value="&lt;span style=&quot;font-size: 17px;&quot;&gt;&lt;b&gt;Consent&lt;/b&gt;&lt;/span&gt;" style="rounded=1;whiteSpace=wrap;html=1;fillColor=#dae8fc;strokeColor=default;gradientColor=none;" vertex="1" parent="1">
          <mxGeometry x="220" y="160" width="120" height="60" as="geometry" />
        </mxCell>
        <mxCell id="PBYAqG-qk1plVAleeU-4-9" value="Data Protection Policies" style="rounded=1;whiteSpace=wrap;html=1;fillColor=#0050ef;fontColor=#ffffff;strokeColor=#001DBC;" vertex="1" parent="1">
          <mxGeometry x="220" y="250" width="120" height="60" as="geometry" />
        </mxCell>
        <mxCell id="PBYAqG-qk1plVAleeU-4-19" value="" style="edgeStyle=orthogonalEdgeStyle;rounded=0;orthogonalLoop=1;jettySize=auto;html=1;" edge="1" parent="1" source="PBYAqG-qk1plVAleeU-4-13" target="PBYAqG-qk1plVAleeU-4-18">
          <mxGeometry relative="1" as="geometry" />
        </mxCell>
        <mxCell id="PBYAqG-qk1plVAleeU-4-23" value="" style="edgeStyle=orthogonalEdgeStyle;rounded=0;orthogonalLoop=1;jettySize=auto;html=1;" edge="1" parent="1" source="PBYAqG-qk1plVAleeU-4-13" target="PBYAqG-qk1plVAleeU-4-22">
          <mxGeometry relative="1" as="geometry" />
        </mxCell>
        <mxCell id="PBYAqG-qk1plVAleeU-4-13" value="&lt;span style=&quot;font-size: 17px;&quot;&gt;&lt;b&gt;Authentication&lt;/b&gt;&lt;/span&gt;" style="rounded=1;whiteSpace=wrap;html=1;fillColor=#dae8fc;strokeColor=default;gradientColor=none;" vertex="1" parent="1">
          <mxGeometry x="390" y="160" width="130" height="60" as="geometry" />
        </mxCell>
        <mxCell id="PBYAqG-qk1plVAleeU-4-18" value="Email Address&lt;div&gt;Phone Number&lt;/div&gt;" style="whiteSpace=wrap;html=1;fillColor=#0050ef;rounded=1;fontColor=#ffffff;strokeColor=#001DBC;" vertex="1" parent="1">
          <mxGeometry x="395" y="250" width="120" height="60" as="geometry" />
        </mxCell>
        <mxCell id="PBYAqG-qk1plVAleeU-4-25" value="" style="edgeStyle=orthogonalEdgeStyle;rounded=0;orthogonalLoop=1;jettySize=auto;html=1;" edge="1" parent="1" source="PBYAqG-qk1plVAleeU-4-22" target="PBYAqG-qk1plVAleeU-4-24">
          <mxGeometry relative="1" as="geometry" />
        </mxCell>
        <mxCell id="PBYAqG-qk1plVAleeU-4-27" value="" style="edgeStyle=orthogonalEdgeStyle;rounded=0;orthogonalLoop=1;jettySize=auto;html=1;" edge="1" parent="1" source="PBYAqG-qk1plVAleeU-4-22" target="PBYAqG-qk1plVAleeU-4-26">
          <mxGeometry relative="1" as="geometry" />
        </mxCell>
        <mxCell id="PBYAqG-qk1plVAleeU-4-22" value="&lt;span style=&quot;font-size: 17px;&quot;&gt;&lt;b&gt;Authorization&lt;/b&gt;&lt;/span&gt;" style="rounded=1;whiteSpace=wrap;html=1;fillColor=#dae8fc;strokeColor=default;gradientColor=none;" vertex="1" parent="1">
          <mxGeometry x="567.5" y="160" width="130" height="60" as="geometry" />
        </mxCell>
        <mxCell id="PBYAqG-qk1plVAleeU-4-24" value="For each action the account perform, a permission list is checked to allow or deny the action" style="whiteSpace=wrap;html=1;fillColor=#0050ef;rounded=1;fontColor=#ffffff;strokeColor=#001DBC;fontSize=11;" vertex="1" parent="1">
          <mxGeometry x="565" y="80" width="135" height="60" as="geometry" />
        </mxCell>
        <mxCell id="PBYAqG-qk1plVAleeU-4-33" value="" style="edgeStyle=orthogonalEdgeStyle;rounded=0;orthogonalLoop=1;jettySize=auto;html=1;" edge="1" parent="1" source="PBYAqG-qk1plVAleeU-4-26" target="PBYAqG-qk1plVAleeU-4-32">
          <mxGeometry relative="1" as="geometry" />
        </mxCell>
        <mxCell id="PBYAqG-qk1plVAleeU-4-26" value="&lt;span style=&quot;font-size: 17px;&quot;&gt;&lt;b&gt;Upload Bill&lt;/b&gt;&lt;/span&gt;" style="rounded=1;whiteSpace=wrap;html=1;fillColor=#dae8fc;strokeColor=default;gradientColor=none;" vertex="1" parent="1">
          <mxGeometry x="567.5" y="340" width="130" height="60" as="geometry" />
        </mxCell>
        <mxCell id="PBYAqG-qk1plVAleeU-4-35" value="" style="edgeStyle=orthogonalEdgeStyle;rounded=0;orthogonalLoop=1;jettySize=auto;html=1;" edge="1" parent="1" source="PBYAqG-qk1plVAleeU-4-32" target="PBYAqG-qk1plVAleeU-4-34">
          <mxGeometry relative="1" as="geometry" />
        </mxCell>
        <mxCell id="PBYAqG-qk1plVAleeU-4-32" value="&lt;span style=&quot;font-size: 17px;&quot;&gt;&lt;b&gt;Analysis&lt;/b&gt;&lt;/span&gt;" style="rounded=1;whiteSpace=wrap;html=1;fillColor=#dae8fc;strokeColor=default;gradientColor=none;" vertex="1" parent="1">
          <mxGeometry x="357.5" y="340" width="130" height="60" as="geometry" />
        </mxCell>
        <mxCell id="PBYAqG-qk1plVAleeU-4-37" value="" style="edgeStyle=orthogonalEdgeStyle;rounded=0;orthogonalLoop=1;jettySize=auto;html=1;" edge="1" parent="1" source="PBYAqG-qk1plVAleeU-4-34" target="PBYAqG-qk1plVAleeU-4-36">
          <mxGeometry relative="1" as="geometry" />
        </mxCell>
        <mxCell id="PBYAqG-qk1plVAleeU-4-34" value="&lt;span style=&quot;font-size: 17px;&quot;&gt;&lt;b&gt;Output&lt;/b&gt;&lt;/span&gt;" style="rounded=1;whiteSpace=wrap;html=1;fillColor=#dae8fc;strokeColor=default;gradientColor=none;" vertex="1" parent="1">
          <mxGeometry x="147.5" y="340" width="130" height="60" as="geometry" />
        </mxCell>
        <mxCell id="PBYAqG-qk1plVAleeU-4-36" value="&lt;div&gt;&lt;ul&gt;&lt;li&gt;&quot;Your bill is within the average range for this procedure.&quot;&lt;/li&gt;&lt;li&gt;&quot;Your bill is above average by X% compared to similar cases.&quot;&lt;/li&gt;&lt;li&gt;&lt;span style=&quot;background-color: initial;&quot;&gt;&quot;Your bill is below average by X% compared to similar cases.&quot;&lt;/span&gt;&lt;/li&gt;&lt;/ul&gt;&lt;/div&gt;&lt;div&gt;&lt;br&gt;&lt;/div&gt;" style="whiteSpace=wrap;html=1;fillColor=#0050ef;rounded=0;fontColor=#ffffff;strokeColor=#001DBC;align=left;" vertex="1" parent="1">
          <mxGeometry x="230" y="460" width="390" height="90" as="geometry" />
        </mxCell>
      </root>
    </mxGraphModel>
  </diagram>
</mxfile>
